<mxfile host="app.diagrams.net" modified="2023-09-10T07:19:12.333Z" agent="Mozilla/5.0 (Windows NT 10.0; Win64; x64) AppleWebKit/537.36 (KHTML, like Gecko) Chrome/114.0.0.0 Safari/537.36 Edg/114.0.1823.86" etag="WHaQiIWGaso8peV91yi-" version="21.7.4" type="github">
  <diagram name="第 1 页" id="Hxaf-aKmFGmY5fvGEb-p">
    <mxGraphModel dx="2559" dy="1651" grid="1" gridSize="14" guides="1" tooltips="1" connect="1" arrows="1" fold="1" page="1" pageScale="1" pageWidth="10027" pageHeight="10169" math="0" shadow="0">
      <root>
        <mxCell id="0" />
        <mxCell id="1" parent="0" />
        <mxCell id="p_qU4f7LWQr0mMZqYFlA-7" value="" style="edgeStyle=orthogonalEdgeStyle;rounded=0;orthogonalLoop=1;jettySize=auto;html=1;" edge="1" parent="1" source="p_qU4f7LWQr0mMZqYFlA-1" target="p_qU4f7LWQr0mMZqYFlA-6">
          <mxGeometry relative="1" as="geometry" />
        </mxCell>
        <mxCell id="p_qU4f7LWQr0mMZqYFlA-1" value="2" style="rounded=1;whiteSpace=wrap;html=1;fillColor=#f8cecc;strokeColor=#b85450;glass=0;shadow=0;comic=1;" vertex="1" parent="1">
          <mxGeometry x="112" y="303" width="120" height="60" as="geometry" />
        </mxCell>
        <mxCell id="p_qU4f7LWQr0mMZqYFlA-9" value="" style="edgeStyle=orthogonalEdgeStyle;rounded=0;orthogonalLoop=1;jettySize=auto;html=1;" edge="1" parent="1" source="p_qU4f7LWQr0mMZqYFlA-6" target="p_qU4f7LWQr0mMZqYFlA-8">
          <mxGeometry relative="1" as="geometry" />
        </mxCell>
        <mxCell id="p_qU4f7LWQr0mMZqYFlA-6" value="4" style="whiteSpace=wrap;html=1;fillColor=#ffe6cc;strokeColor=#d79b00;rounded=1;glass=0;shadow=0;comic=1;" vertex="1" parent="1">
          <mxGeometry x="312" y="303" width="120" height="60" as="geometry" />
        </mxCell>
        <mxCell id="p_qU4f7LWQr0mMZqYFlA-11" value="" style="edgeStyle=orthogonalEdgeStyle;rounded=0;orthogonalLoop=1;jettySize=auto;html=1;" edge="1" parent="1" source="p_qU4f7LWQr0mMZqYFlA-8" target="p_qU4f7LWQr0mMZqYFlA-10">
          <mxGeometry relative="1" as="geometry" />
        </mxCell>
        <mxCell id="p_qU4f7LWQr0mMZqYFlA-8" value="0" style="whiteSpace=wrap;html=1;fillColor=#ffe6cc;strokeColor=#d79b00;rounded=1;glass=0;shadow=0;comic=1;" vertex="1" parent="1">
          <mxGeometry x="512" y="303" width="120" height="60" as="geometry" />
        </mxCell>
        <mxCell id="p_qU4f7LWQr0mMZqYFlA-13" value="" style="edgeStyle=orthogonalEdgeStyle;rounded=0;orthogonalLoop=1;jettySize=auto;html=1;" edge="1" parent="1" source="p_qU4f7LWQr0mMZqYFlA-10" target="p_qU4f7LWQr0mMZqYFlA-12">
          <mxGeometry relative="1" as="geometry" />
        </mxCell>
        <mxCell id="p_qU4f7LWQr0mMZqYFlA-10" value="5" style="whiteSpace=wrap;html=1;fillColor=#ffe6cc;strokeColor=#d79b00;rounded=1;glass=0;shadow=0;comic=1;" vertex="1" parent="1">
          <mxGeometry x="712" y="303" width="120" height="60" as="geometry" />
        </mxCell>
        <mxCell id="p_qU4f7LWQr0mMZqYFlA-15" value="" style="edgeStyle=orthogonalEdgeStyle;rounded=0;orthogonalLoop=1;jettySize=auto;html=1;" edge="1" parent="1" source="p_qU4f7LWQr0mMZqYFlA-12" target="p_qU4f7LWQr0mMZqYFlA-14">
          <mxGeometry relative="1" as="geometry" />
        </mxCell>
        <mxCell id="p_qU4f7LWQr0mMZqYFlA-12" value="0" style="whiteSpace=wrap;html=1;fillColor=#ffe6cc;strokeColor=#d79b00;rounded=1;glass=0;shadow=0;comic=1;" vertex="1" parent="1">
          <mxGeometry x="912" y="303" width="120" height="60" as="geometry" />
        </mxCell>
        <mxCell id="p_qU4f7LWQr0mMZqYFlA-14" value="3" style="whiteSpace=wrap;html=1;fillColor=#ffe6cc;strokeColor=#d79b00;rounded=1;glass=0;shadow=0;comic=1;" vertex="1" parent="1">
          <mxGeometry x="1112" y="303" width="120" height="60" as="geometry" />
        </mxCell>
        <mxCell id="p_qU4f7LWQr0mMZqYFlA-16" value="" style="endArrow=classic;html=1;rounded=0;" edge="1" parent="1" source="p_qU4f7LWQr0mMZqYFlA-18">
          <mxGeometry width="50" height="50" relative="1" as="geometry">
            <mxPoint x="168" y="205" as="sourcePoint" />
            <mxPoint x="168" y="303" as="targetPoint" />
          </mxGeometry>
        </mxCell>
        <mxCell id="p_qU4f7LWQr0mMZqYFlA-17" value="" style="endArrow=classic;html=1;rounded=0;" edge="1" parent="1">
          <mxGeometry width="50" height="50" relative="1" as="geometry">
            <mxPoint x="168" y="475" as="sourcePoint" />
            <mxPoint x="168" y="363" as="targetPoint" />
            <Array as="points" />
          </mxGeometry>
        </mxCell>
        <mxCell id="p_qU4f7LWQr0mMZqYFlA-18" value="right" style="text;html=1;strokeColor=#6c8ebf;fillColor=#dae8fc;align=center;verticalAlign=middle;whiteSpace=wrap;rounded=0;" vertex="1" parent="1">
          <mxGeometry x="138" y="190" width="60" height="30" as="geometry" />
        </mxCell>
        <mxCell id="p_qU4f7LWQr0mMZqYFlA-19" value="left" style="text;html=1;strokeColor=#82b366;fillColor=#d5e8d4;align=center;verticalAlign=middle;whiteSpace=wrap;rounded=0;" vertex="1" parent="1">
          <mxGeometry x="138" y="457" width="60" height="30" as="geometry" />
        </mxCell>
        <mxCell id="p_qU4f7LWQr0mMZqYFlA-20" value="" style="edgeStyle=orthogonalEdgeStyle;rounded=0;orthogonalLoop=1;jettySize=auto;html=1;" edge="1" parent="1" source="p_qU4f7LWQr0mMZqYFlA-21" target="p_qU4f7LWQr0mMZqYFlA-23">
          <mxGeometry relative="1" as="geometry" />
        </mxCell>
        <mxCell id="p_qU4f7LWQr0mMZqYFlA-21" value="2" style="rounded=1;whiteSpace=wrap;html=1;fillColor=#ffe6cc;strokeColor=#d79b00;glass=0;shadow=0;comic=1;" vertex="1" parent="1">
          <mxGeometry x="112" y="599" width="120" height="60" as="geometry" />
        </mxCell>
        <mxCell id="p_qU4f7LWQr0mMZqYFlA-22" value="" style="edgeStyle=orthogonalEdgeStyle;rounded=0;orthogonalLoop=1;jettySize=auto;html=1;" edge="1" parent="1" source="p_qU4f7LWQr0mMZqYFlA-23" target="p_qU4f7LWQr0mMZqYFlA-25">
          <mxGeometry relative="1" as="geometry" />
        </mxCell>
        <mxCell id="p_qU4f7LWQr0mMZqYFlA-23" value="4" style="whiteSpace=wrap;html=1;fillColor=#f8cecc;strokeColor=#b85450;rounded=1;glass=0;shadow=0;comic=1;" vertex="1" parent="1">
          <mxGeometry x="312" y="599" width="120" height="60" as="geometry" />
        </mxCell>
        <mxCell id="p_qU4f7LWQr0mMZqYFlA-24" value="" style="edgeStyle=orthogonalEdgeStyle;rounded=0;orthogonalLoop=1;jettySize=auto;html=1;" edge="1" parent="1" source="p_qU4f7LWQr0mMZqYFlA-25" target="p_qU4f7LWQr0mMZqYFlA-27">
          <mxGeometry relative="1" as="geometry" />
        </mxCell>
        <mxCell id="p_qU4f7LWQr0mMZqYFlA-25" value="0" style="whiteSpace=wrap;html=1;fillColor=#ffe6cc;strokeColor=#d79b00;rounded=1;glass=0;shadow=0;comic=1;" vertex="1" parent="1">
          <mxGeometry x="512" y="599" width="120" height="60" as="geometry" />
        </mxCell>
        <mxCell id="p_qU4f7LWQr0mMZqYFlA-26" value="" style="edgeStyle=orthogonalEdgeStyle;rounded=0;orthogonalLoop=1;jettySize=auto;html=1;" edge="1" parent="1" source="p_qU4f7LWQr0mMZqYFlA-27" target="p_qU4f7LWQr0mMZqYFlA-29">
          <mxGeometry relative="1" as="geometry" />
        </mxCell>
        <mxCell id="p_qU4f7LWQr0mMZqYFlA-27" value="5" style="whiteSpace=wrap;html=1;fillColor=#ffe6cc;strokeColor=#d79b00;rounded=1;glass=0;shadow=0;comic=1;" vertex="1" parent="1">
          <mxGeometry x="712" y="599" width="120" height="60" as="geometry" />
        </mxCell>
        <mxCell id="p_qU4f7LWQr0mMZqYFlA-28" value="" style="edgeStyle=orthogonalEdgeStyle;rounded=0;orthogonalLoop=1;jettySize=auto;html=1;" edge="1" parent="1" source="p_qU4f7LWQr0mMZqYFlA-29" target="p_qU4f7LWQr0mMZqYFlA-30">
          <mxGeometry relative="1" as="geometry" />
        </mxCell>
        <mxCell id="p_qU4f7LWQr0mMZqYFlA-29" value="0" style="whiteSpace=wrap;html=1;fillColor=#ffe6cc;strokeColor=#d79b00;rounded=1;glass=0;shadow=0;comic=1;" vertex="1" parent="1">
          <mxGeometry x="912" y="599" width="120" height="60" as="geometry" />
        </mxCell>
        <mxCell id="p_qU4f7LWQr0mMZqYFlA-30" value="3" style="whiteSpace=wrap;html=1;fillColor=#ffe6cc;strokeColor=#d79b00;rounded=1;glass=0;shadow=0;comic=1;" vertex="1" parent="1">
          <mxGeometry x="1112" y="599" width="120" height="60" as="geometry" />
        </mxCell>
        <mxCell id="p_qU4f7LWQr0mMZqYFlA-31" value="" style="endArrow=classic;html=1;rounded=0;" edge="1" parent="1" source="p_qU4f7LWQr0mMZqYFlA-33">
          <mxGeometry width="50" height="50" relative="1" as="geometry">
            <mxPoint x="372" y="502" as="sourcePoint" />
            <mxPoint x="372" y="599" as="targetPoint" />
            <Array as="points" />
          </mxGeometry>
        </mxCell>
        <mxCell id="p_qU4f7LWQr0mMZqYFlA-32" value="" style="endArrow=classic;html=1;rounded=0;" edge="1" parent="1">
          <mxGeometry width="50" height="50" relative="1" as="geometry">
            <mxPoint x="371.5" y="771" as="sourcePoint" />
            <mxPoint x="371.5" y="659" as="targetPoint" />
            <Array as="points" />
          </mxGeometry>
        </mxCell>
        <mxCell id="p_qU4f7LWQr0mMZqYFlA-33" value="right" style="text;html=1;strokeColor=#6c8ebf;fillColor=#dae8fc;align=center;verticalAlign=middle;whiteSpace=wrap;rounded=0;" vertex="1" parent="1">
          <mxGeometry x="342" y="487" width="60" height="30" as="geometry" />
        </mxCell>
        <mxCell id="p_qU4f7LWQr0mMZqYFlA-34" value="left" style="text;html=1;strokeColor=#82b366;fillColor=#d5e8d4;align=center;verticalAlign=middle;whiteSpace=wrap;rounded=0;" vertex="1" parent="1">
          <mxGeometry x="342" y="752" width="60" height="30" as="geometry" />
        </mxCell>
        <mxCell id="p_qU4f7LWQr0mMZqYFlA-35" value="" style="edgeStyle=orthogonalEdgeStyle;rounded=0;orthogonalLoop=1;jettySize=auto;html=1;" edge="1" parent="1" source="p_qU4f7LWQr0mMZqYFlA-36" target="p_qU4f7LWQr0mMZqYFlA-38">
          <mxGeometry relative="1" as="geometry" />
        </mxCell>
        <mxCell id="p_qU4f7LWQr0mMZqYFlA-36" value="2" style="rounded=1;whiteSpace=wrap;html=1;fillColor=#ffe6cc;strokeColor=#d79b00;glass=0;shadow=0;comic=1;" vertex="1" parent="1">
          <mxGeometry x="112" y="894" width="120" height="60" as="geometry" />
        </mxCell>
        <mxCell id="p_qU4f7LWQr0mMZqYFlA-37" value="" style="edgeStyle=orthogonalEdgeStyle;rounded=0;orthogonalLoop=1;jettySize=auto;html=1;" edge="1" parent="1" source="p_qU4f7LWQr0mMZqYFlA-38" target="p_qU4f7LWQr0mMZqYFlA-40">
          <mxGeometry relative="1" as="geometry" />
        </mxCell>
        <mxCell id="p_qU4f7LWQr0mMZqYFlA-38" value="4" style="whiteSpace=wrap;html=1;fillColor=#ffe6cc;strokeColor=#d79b00;rounded=1;glass=0;shadow=0;comic=1;" vertex="1" parent="1">
          <mxGeometry x="312" y="894" width="120" height="60" as="geometry" />
        </mxCell>
        <mxCell id="p_qU4f7LWQr0mMZqYFlA-39" value="" style="edgeStyle=orthogonalEdgeStyle;rounded=0;orthogonalLoop=1;jettySize=auto;html=1;" edge="1" parent="1" source="p_qU4f7LWQr0mMZqYFlA-40" target="p_qU4f7LWQr0mMZqYFlA-42">
          <mxGeometry relative="1" as="geometry" />
        </mxCell>
        <mxCell id="p_qU4f7LWQr0mMZqYFlA-40" value="0" style="whiteSpace=wrap;html=1;fillColor=#f8cecc;strokeColor=#b85450;rounded=1;glass=0;shadow=0;comic=1;" vertex="1" parent="1">
          <mxGeometry x="512" y="894" width="120" height="60" as="geometry" />
        </mxCell>
        <mxCell id="p_qU4f7LWQr0mMZqYFlA-41" value="" style="edgeStyle=orthogonalEdgeStyle;rounded=0;orthogonalLoop=1;jettySize=auto;html=1;" edge="1" parent="1" source="p_qU4f7LWQr0mMZqYFlA-42" target="p_qU4f7LWQr0mMZqYFlA-44">
          <mxGeometry relative="1" as="geometry" />
        </mxCell>
        <mxCell id="p_qU4f7LWQr0mMZqYFlA-42" value="5" style="whiteSpace=wrap;html=1;fillColor=#ffe6cc;strokeColor=#d79b00;rounded=1;glass=0;shadow=0;comic=1;" vertex="1" parent="1">
          <mxGeometry x="712" y="894" width="120" height="60" as="geometry" />
        </mxCell>
        <mxCell id="p_qU4f7LWQr0mMZqYFlA-43" value="" style="edgeStyle=orthogonalEdgeStyle;rounded=0;orthogonalLoop=1;jettySize=auto;html=1;" edge="1" parent="1" source="p_qU4f7LWQr0mMZqYFlA-44" target="p_qU4f7LWQr0mMZqYFlA-45">
          <mxGeometry relative="1" as="geometry" />
        </mxCell>
        <mxCell id="p_qU4f7LWQr0mMZqYFlA-44" value="0" style="whiteSpace=wrap;html=1;fillColor=#ffe6cc;strokeColor=#d79b00;rounded=1;glass=0;shadow=0;comic=1;" vertex="1" parent="1">
          <mxGeometry x="912" y="894" width="120" height="60" as="geometry" />
        </mxCell>
        <mxCell id="p_qU4f7LWQr0mMZqYFlA-45" value="3" style="whiteSpace=wrap;html=1;fillColor=#ffe6cc;strokeColor=#d79b00;rounded=1;glass=0;shadow=0;comic=1;" vertex="1" parent="1">
          <mxGeometry x="1112" y="894" width="120" height="60" as="geometry" />
        </mxCell>
        <mxCell id="p_qU4f7LWQr0mMZqYFlA-46" value="" style="endArrow=classic;html=1;rounded=0;" edge="1" parent="1" source="p_qU4f7LWQr0mMZqYFlA-48">
          <mxGeometry width="50" height="50" relative="1" as="geometry">
            <mxPoint x="572" y="797" as="sourcePoint" />
            <mxPoint x="572" y="894" as="targetPoint" />
            <Array as="points" />
          </mxGeometry>
        </mxCell>
        <mxCell id="p_qU4f7LWQr0mMZqYFlA-47" value="" style="endArrow=classic;html=1;rounded=0;" edge="1" parent="1" source="p_qU4f7LWQr0mMZqYFlA-49">
          <mxGeometry width="50" height="50" relative="1" as="geometry">
            <mxPoint x="571.5" y="1066" as="sourcePoint" />
            <mxPoint x="571.5" y="954" as="targetPoint" />
            <Array as="points" />
          </mxGeometry>
        </mxCell>
        <mxCell id="p_qU4f7LWQr0mMZqYFlA-48" value="right" style="text;html=1;strokeColor=#6c8ebf;fillColor=#dae8fc;align=center;verticalAlign=middle;whiteSpace=wrap;rounded=0;" vertex="1" parent="1">
          <mxGeometry x="542" y="782" width="60" height="30" as="geometry" />
        </mxCell>
        <mxCell id="p_qU4f7LWQr0mMZqYFlA-49" value="left" style="text;html=1;strokeColor=#82b366;fillColor=#d5e8d4;align=center;verticalAlign=middle;whiteSpace=wrap;rounded=0;" vertex="1" parent="1">
          <mxGeometry x="542" y="1048" width="60" height="30" as="geometry" />
        </mxCell>
        <mxCell id="p_qU4f7LWQr0mMZqYFlA-50" value="" style="edgeStyle=orthogonalEdgeStyle;rounded=0;orthogonalLoop=1;jettySize=auto;html=1;" edge="1" parent="1" source="p_qU4f7LWQr0mMZqYFlA-51" target="p_qU4f7LWQr0mMZqYFlA-53">
          <mxGeometry relative="1" as="geometry" />
        </mxCell>
        <mxCell id="p_qU4f7LWQr0mMZqYFlA-51" value="2" style="rounded=1;whiteSpace=wrap;html=1;fillColor=#ffe6cc;strokeColor=#d79b00;glass=0;shadow=0;comic=1;" vertex="1" parent="1">
          <mxGeometry x="112" y="1176" width="120" height="60" as="geometry" />
        </mxCell>
        <mxCell id="p_qU4f7LWQr0mMZqYFlA-52" value="" style="edgeStyle=orthogonalEdgeStyle;rounded=0;orthogonalLoop=1;jettySize=auto;html=1;" edge="1" parent="1" source="p_qU4f7LWQr0mMZqYFlA-53" target="p_qU4f7LWQr0mMZqYFlA-55">
          <mxGeometry relative="1" as="geometry" />
        </mxCell>
        <mxCell id="p_qU4f7LWQr0mMZqYFlA-53" value="4" style="whiteSpace=wrap;html=1;fillColor=#ffe6cc;strokeColor=#d79b00;rounded=1;glass=0;shadow=0;comic=1;" vertex="1" parent="1">
          <mxGeometry x="312" y="1176" width="120" height="60" as="geometry" />
        </mxCell>
        <mxCell id="p_qU4f7LWQr0mMZqYFlA-54" value="" style="edgeStyle=orthogonalEdgeStyle;rounded=0;orthogonalLoop=1;jettySize=auto;html=1;" edge="1" parent="1" source="p_qU4f7LWQr0mMZqYFlA-55" target="p_qU4f7LWQr0mMZqYFlA-57">
          <mxGeometry relative="1" as="geometry" />
        </mxCell>
        <mxCell id="p_qU4f7LWQr0mMZqYFlA-55" value="0" style="whiteSpace=wrap;html=1;fillColor=#ffe6cc;strokeColor=#d79b00;rounded=1;glass=0;shadow=0;comic=1;" vertex="1" parent="1">
          <mxGeometry x="512" y="1176" width="120" height="60" as="geometry" />
        </mxCell>
        <mxCell id="p_qU4f7LWQr0mMZqYFlA-56" value="" style="edgeStyle=orthogonalEdgeStyle;rounded=0;orthogonalLoop=1;jettySize=auto;html=1;" edge="1" parent="1" source="p_qU4f7LWQr0mMZqYFlA-57" target="p_qU4f7LWQr0mMZqYFlA-59">
          <mxGeometry relative="1" as="geometry" />
        </mxCell>
        <mxCell id="p_qU4f7LWQr0mMZqYFlA-57" value="5" style="whiteSpace=wrap;html=1;fillColor=#f8cecc;strokeColor=#b85450;rounded=1;glass=0;shadow=0;comic=1;" vertex="1" parent="1">
          <mxGeometry x="712" y="1176" width="120" height="60" as="geometry" />
        </mxCell>
        <mxCell id="p_qU4f7LWQr0mMZqYFlA-58" value="" style="edgeStyle=orthogonalEdgeStyle;rounded=0;orthogonalLoop=1;jettySize=auto;html=1;" edge="1" parent="1" source="p_qU4f7LWQr0mMZqYFlA-59" target="p_qU4f7LWQr0mMZqYFlA-60">
          <mxGeometry relative="1" as="geometry" />
        </mxCell>
        <mxCell id="p_qU4f7LWQr0mMZqYFlA-59" value="0" style="whiteSpace=wrap;html=1;fillColor=#ffe6cc;strokeColor=#d79b00;rounded=1;glass=0;shadow=0;comic=1;" vertex="1" parent="1">
          <mxGeometry x="912" y="1176" width="120" height="60" as="geometry" />
        </mxCell>
        <mxCell id="p_qU4f7LWQr0mMZqYFlA-60" value="3" style="whiteSpace=wrap;html=1;fillColor=#ffe6cc;strokeColor=#d79b00;rounded=1;glass=0;shadow=0;comic=1;" vertex="1" parent="1">
          <mxGeometry x="1112" y="1176" width="120" height="60" as="geometry" />
        </mxCell>
        <mxCell id="p_qU4f7LWQr0mMZqYFlA-61" value="" style="endArrow=classic;html=1;rounded=0;" edge="1" parent="1">
          <mxGeometry width="50" height="50" relative="1" as="geometry">
            <mxPoint x="772" y="1106" as="sourcePoint" />
            <mxPoint x="772" y="1176" as="targetPoint" />
            <Array as="points" />
          </mxGeometry>
        </mxCell>
        <mxCell id="p_qU4f7LWQr0mMZqYFlA-63" value="right" style="text;html=1;strokeColor=#6c8ebf;fillColor=#dae8fc;align=center;verticalAlign=middle;whiteSpace=wrap;rounded=0;" vertex="1" parent="1">
          <mxGeometry x="742" y="1078" width="60" height="30" as="geometry" />
        </mxCell>
        <mxCell id="p_qU4f7LWQr0mMZqYFlA-64" value="left" style="text;html=1;strokeColor=#82b366;fillColor=#d5e8d4;align=center;verticalAlign=middle;whiteSpace=wrap;rounded=0;" vertex="1" parent="1">
          <mxGeometry x="542" y="1306" width="60" height="30" as="geometry" />
        </mxCell>
        <mxCell id="p_qU4f7LWQr0mMZqYFlA-65" value="" style="endArrow=classic;html=1;rounded=0;" edge="1" parent="1">
          <mxGeometry width="50" height="50" relative="1" as="geometry">
            <mxPoint x="573" y="1306" as="sourcePoint" />
            <mxPoint x="572.75" y="1236" as="targetPoint" />
            <Array as="points" />
          </mxGeometry>
        </mxCell>
        <mxCell id="p_qU4f7LWQr0mMZqYFlA-66" value="" style="edgeStyle=orthogonalEdgeStyle;rounded=0;orthogonalLoop=1;jettySize=auto;html=1;" edge="1" parent="1" source="p_qU4f7LWQr0mMZqYFlA-67" target="p_qU4f7LWQr0mMZqYFlA-69">
          <mxGeometry relative="1" as="geometry" />
        </mxCell>
        <mxCell id="p_qU4f7LWQr0mMZqYFlA-67" value="2" style="rounded=1;whiteSpace=wrap;html=1;fillColor=#ffe6cc;strokeColor=#d79b00;glass=0;shadow=0;comic=1;" vertex="1" parent="1">
          <mxGeometry x="112" y="1446" width="120" height="60" as="geometry" />
        </mxCell>
        <mxCell id="p_qU4f7LWQr0mMZqYFlA-68" value="" style="edgeStyle=orthogonalEdgeStyle;rounded=0;orthogonalLoop=1;jettySize=auto;html=1;" edge="1" parent="1" source="p_qU4f7LWQr0mMZqYFlA-69" target="p_qU4f7LWQr0mMZqYFlA-71">
          <mxGeometry relative="1" as="geometry" />
        </mxCell>
        <mxCell id="p_qU4f7LWQr0mMZqYFlA-69" value="4" style="whiteSpace=wrap;html=1;fillColor=#ffe6cc;strokeColor=#d79b00;rounded=1;glass=0;shadow=0;comic=1;" vertex="1" parent="1">
          <mxGeometry x="312" y="1446" width="120" height="60" as="geometry" />
        </mxCell>
        <mxCell id="p_qU4f7LWQr0mMZqYFlA-70" value="" style="edgeStyle=orthogonalEdgeStyle;rounded=0;orthogonalLoop=1;jettySize=auto;html=1;" edge="1" parent="1" source="p_qU4f7LWQr0mMZqYFlA-71" target="p_qU4f7LWQr0mMZqYFlA-73">
          <mxGeometry relative="1" as="geometry" />
        </mxCell>
        <mxCell id="p_qU4f7LWQr0mMZqYFlA-71" value="5" style="whiteSpace=wrap;html=1;fillColor=#ffe6cc;strokeColor=#d79b00;rounded=1;glass=0;shadow=0;comic=1;" vertex="1" parent="1">
          <mxGeometry x="512" y="1446" width="120" height="60" as="geometry" />
        </mxCell>
        <mxCell id="p_qU4f7LWQr0mMZqYFlA-72" value="" style="edgeStyle=orthogonalEdgeStyle;rounded=0;orthogonalLoop=1;jettySize=auto;html=1;" edge="1" parent="1" source="p_qU4f7LWQr0mMZqYFlA-73" target="p_qU4f7LWQr0mMZqYFlA-75">
          <mxGeometry relative="1" as="geometry" />
        </mxCell>
        <mxCell id="p_qU4f7LWQr0mMZqYFlA-73" value="0" style="whiteSpace=wrap;html=1;fillColor=#ffe6cc;strokeColor=#d79b00;rounded=1;glass=0;shadow=0;comic=1;" vertex="1" parent="1">
          <mxGeometry x="712" y="1446" width="120" height="60" as="geometry" />
        </mxCell>
        <mxCell id="p_qU4f7LWQr0mMZqYFlA-74" value="" style="edgeStyle=orthogonalEdgeStyle;rounded=0;orthogonalLoop=1;jettySize=auto;html=1;" edge="1" parent="1" source="p_qU4f7LWQr0mMZqYFlA-75" target="p_qU4f7LWQr0mMZqYFlA-76">
          <mxGeometry relative="1" as="geometry" />
        </mxCell>
        <mxCell id="p_qU4f7LWQr0mMZqYFlA-75" value="0" style="whiteSpace=wrap;html=1;fillColor=#f8cecc;strokeColor=#b85450;rounded=1;glass=0;shadow=0;comic=1;" vertex="1" parent="1">
          <mxGeometry x="912" y="1446" width="120" height="60" as="geometry" />
        </mxCell>
        <mxCell id="p_qU4f7LWQr0mMZqYFlA-76" value="3" style="whiteSpace=wrap;html=1;fillColor=#ffe6cc;strokeColor=#d79b00;rounded=1;glass=0;shadow=0;comic=1;" vertex="1" parent="1">
          <mxGeometry x="1112" y="1446" width="120" height="60" as="geometry" />
        </mxCell>
        <mxCell id="p_qU4f7LWQr0mMZqYFlA-77" value="" style="endArrow=classic;html=1;rounded=0;" edge="1" parent="1">
          <mxGeometry width="50" height="50" relative="1" as="geometry">
            <mxPoint x="972" y="1362" as="sourcePoint" />
            <mxPoint x="972" y="1444" as="targetPoint" />
            <Array as="points" />
          </mxGeometry>
        </mxCell>
        <mxCell id="p_qU4f7LWQr0mMZqYFlA-78" value="right" style="text;html=1;strokeColor=#6c8ebf;fillColor=#dae8fc;align=center;verticalAlign=middle;whiteSpace=wrap;rounded=0;" vertex="1" parent="1">
          <mxGeometry x="942" y="1332" width="60" height="30" as="geometry" />
        </mxCell>
        <mxCell id="p_qU4f7LWQr0mMZqYFlA-79" value="left" style="text;html=1;strokeColor=#82b366;fillColor=#d5e8d4;align=center;verticalAlign=middle;whiteSpace=wrap;rounded=0;" vertex="1" parent="1">
          <mxGeometry x="742" y="1610" width="60" height="30" as="geometry" />
        </mxCell>
        <mxCell id="p_qU4f7LWQr0mMZqYFlA-80" value="" style="endArrow=classic;html=1;rounded=0;" edge="1" parent="1">
          <mxGeometry width="50" height="50" relative="1" as="geometry">
            <mxPoint x="773" y="1610" as="sourcePoint" />
            <mxPoint x="772.75" y="1512" as="targetPoint" />
            <Array as="points" />
          </mxGeometry>
        </mxCell>
        <mxCell id="p_qU4f7LWQr0mMZqYFlA-81" value="" style="edgeStyle=orthogonalEdgeStyle;rounded=0;orthogonalLoop=1;jettySize=auto;html=1;" edge="1" parent="1" source="p_qU4f7LWQr0mMZqYFlA-82" target="p_qU4f7LWQr0mMZqYFlA-84">
          <mxGeometry relative="1" as="geometry" />
        </mxCell>
        <mxCell id="p_qU4f7LWQr0mMZqYFlA-82" value="2" style="rounded=1;whiteSpace=wrap;html=1;fillColor=#ffe6cc;strokeColor=#d79b00;glass=0;shadow=0;comic=1;" vertex="1" parent="1">
          <mxGeometry x="112" y="1766" width="120" height="60" as="geometry" />
        </mxCell>
        <mxCell id="p_qU4f7LWQr0mMZqYFlA-83" value="" style="edgeStyle=orthogonalEdgeStyle;rounded=0;orthogonalLoop=1;jettySize=auto;html=1;" edge="1" parent="1" source="p_qU4f7LWQr0mMZqYFlA-84" target="p_qU4f7LWQr0mMZqYFlA-86">
          <mxGeometry relative="1" as="geometry" />
        </mxCell>
        <mxCell id="p_qU4f7LWQr0mMZqYFlA-84" value="4" style="whiteSpace=wrap;html=1;fillColor=#ffe6cc;strokeColor=#d79b00;rounded=1;glass=0;shadow=0;comic=1;" vertex="1" parent="1">
          <mxGeometry x="312" y="1766" width="120" height="60" as="geometry" />
        </mxCell>
        <mxCell id="p_qU4f7LWQr0mMZqYFlA-85" value="" style="edgeStyle=orthogonalEdgeStyle;rounded=0;orthogonalLoop=1;jettySize=auto;html=1;" edge="1" parent="1" source="p_qU4f7LWQr0mMZqYFlA-86" target="p_qU4f7LWQr0mMZqYFlA-88">
          <mxGeometry relative="1" as="geometry" />
        </mxCell>
        <mxCell id="p_qU4f7LWQr0mMZqYFlA-86" value="5" style="whiteSpace=wrap;html=1;fillColor=#ffe6cc;strokeColor=#d79b00;rounded=1;glass=0;shadow=0;comic=1;" vertex="1" parent="1">
          <mxGeometry x="512" y="1766" width="120" height="60" as="geometry" />
        </mxCell>
        <mxCell id="p_qU4f7LWQr0mMZqYFlA-87" value="" style="edgeStyle=orthogonalEdgeStyle;rounded=0;orthogonalLoop=1;jettySize=auto;html=1;" edge="1" parent="1" source="p_qU4f7LWQr0mMZqYFlA-88" target="p_qU4f7LWQr0mMZqYFlA-90">
          <mxGeometry relative="1" as="geometry" />
        </mxCell>
        <mxCell id="p_qU4f7LWQr0mMZqYFlA-88" value="3" style="whiteSpace=wrap;html=1;fillColor=#ffe6cc;strokeColor=#d79b00;rounded=1;glass=0;shadow=0;comic=1;" vertex="1" parent="1">
          <mxGeometry x="712" y="1766" width="120" height="60" as="geometry" />
        </mxCell>
        <mxCell id="p_qU4f7LWQr0mMZqYFlA-89" value="" style="edgeStyle=orthogonalEdgeStyle;rounded=0;orthogonalLoop=1;jettySize=auto;html=1;" edge="1" parent="1" source="p_qU4f7LWQr0mMZqYFlA-90" target="p_qU4f7LWQr0mMZqYFlA-91">
          <mxGeometry relative="1" as="geometry" />
        </mxCell>
        <mxCell id="p_qU4f7LWQr0mMZqYFlA-90" value="0" style="whiteSpace=wrap;html=1;fillColor=#ffe6cc;strokeColor=#d79b00;rounded=1;glass=0;shadow=0;comic=1;" vertex="1" parent="1">
          <mxGeometry x="912" y="1766" width="120" height="60" as="geometry" />
        </mxCell>
        <mxCell id="p_qU4f7LWQr0mMZqYFlA-91" value="0" style="whiteSpace=wrap;html=1;fillColor=#f8cecc;strokeColor=#b85450;rounded=1;glass=0;shadow=0;comic=1;" vertex="1" parent="1">
          <mxGeometry x="1112" y="1766" width="120" height="60" as="geometry" />
        </mxCell>
        <mxCell id="p_qU4f7LWQr0mMZqYFlA-92" value="" style="endArrow=classic;html=1;rounded=0;" edge="1" parent="1" source="p_qU4f7LWQr0mMZqYFlA-93">
          <mxGeometry width="50" height="50" relative="1" as="geometry">
            <mxPoint x="1172" y="1669" as="sourcePoint" />
            <mxPoint x="1172" y="1766" as="targetPoint" />
            <Array as="points" />
          </mxGeometry>
        </mxCell>
        <mxCell id="p_qU4f7LWQr0mMZqYFlA-93" value="right" style="text;html=1;strokeColor=#6c8ebf;fillColor=#dae8fc;align=center;verticalAlign=middle;whiteSpace=wrap;rounded=0;" vertex="1" parent="1">
          <mxGeometry x="1142" y="1640" width="60" height="30" as="geometry" />
        </mxCell>
        <mxCell id="p_qU4f7LWQr0mMZqYFlA-94" value="left" style="text;html=1;strokeColor=#82b366;fillColor=#d5e8d4;align=center;verticalAlign=middle;whiteSpace=wrap;rounded=0;" vertex="1" parent="1">
          <mxGeometry x="742" y="1886" width="60" height="30" as="geometry" />
        </mxCell>
        <mxCell id="p_qU4f7LWQr0mMZqYFlA-95" value="" style="endArrow=classic;html=1;rounded=0;" edge="1" parent="1">
          <mxGeometry width="50" height="50" relative="1" as="geometry">
            <mxPoint x="773" y="1886" as="sourcePoint" />
            <mxPoint x="772.75" y="1826" as="targetPoint" />
            <Array as="points" />
          </mxGeometry>
        </mxCell>
        <mxCell id="p_qU4f7LWQr0mMZqYFlA-96" value="开始" style="text;html=1;strokeColor=#9673a6;fillColor=#e1d5e7;align=center;verticalAlign=middle;whiteSpace=wrap;rounded=0;" vertex="1" parent="1">
          <mxGeometry x="14" y="318" width="60" height="30" as="geometry" />
        </mxCell>
        <mxCell id="p_qU4f7LWQr0mMZqYFlA-97" value="第一次" style="text;html=1;strokeColor=#9673a6;fillColor=#e1d5e7;align=center;verticalAlign=middle;whiteSpace=wrap;rounded=0;" vertex="1" parent="1">
          <mxGeometry x="14" y="614" width="60" height="30" as="geometry" />
        </mxCell>
        <mxCell id="p_qU4f7LWQr0mMZqYFlA-98" value="第二次" style="text;html=1;strokeColor=#9673a6;fillColor=#e1d5e7;align=center;verticalAlign=middle;whiteSpace=wrap;rounded=0;" vertex="1" parent="1">
          <mxGeometry x="14" y="909" width="60" height="30" as="geometry" />
        </mxCell>
        <mxCell id="p_qU4f7LWQr0mMZqYFlA-100" value="第三次" style="text;html=1;strokeColor=#9673a6;fillColor=#e1d5e7;align=center;verticalAlign=middle;whiteSpace=wrap;rounded=0;" vertex="1" parent="1">
          <mxGeometry x="14" y="1191" width="60" height="30" as="geometry" />
        </mxCell>
        <mxCell id="p_qU4f7LWQr0mMZqYFlA-101" value="第四次" style="text;html=1;strokeColor=#9673a6;fillColor=#e1d5e7;align=center;verticalAlign=middle;whiteSpace=wrap;rounded=0;" vertex="1" parent="1">
          <mxGeometry x="14" y="1461" width="60" height="30" as="geometry" />
        </mxCell>
        <mxCell id="p_qU4f7LWQr0mMZqYFlA-102" value="第五次" style="text;html=1;strokeColor=#9673a6;fillColor=#e1d5e7;align=center;verticalAlign=middle;whiteSpace=wrap;rounded=0;" vertex="1" parent="1">
          <mxGeometry x="14" y="1781" width="60" height="30" as="geometry" />
        </mxCell>
      </root>
    </mxGraphModel>
  </diagram>
</mxfile>
